<?xml version="1.0" encoding="UTF-8"?>
<svg xmlns="http://www.w3.org/2000/svg" width="266.38" height="202.28" viewBox="311.87 183.91 266.38 202.28" version="1.1">
  <desc>Produce by Acme CAD Converter</desc>
<path d="M327.26 378.89L327.26 368.89 317.26 378.89 327.26 378.89Z"
fill="RGB(143,143,143)" stroke="RGB(143,143,143)" stroke-width="0.2"/>
<path d="M317.26 378.89L327.26 368.89 317.26 189.29 317.26 378.89Z"
fill="RGB(143,143,143)" stroke="RGB(143,143,143)" stroke-width="0.2"/>
<path d="M327.26 364.14L327.26 199.29 317.26 189.29 327.26 364.14Z"
fill="RGB(143,143,143)" stroke="RGB(143,143,143)" stroke-width="0.2"/>
<path d="M327.26 199.29L327.26 189.29 317.26 189.29 327.26 199.29Z"
fill="RGB(143,143,143)" stroke="RGB(143,143,143)" stroke-width="0.2"/>
<path d="M327.26 378.89L439.68 378.89 327.26 368.89 327.26 378.89Z"
fill="RGB(143,143,143)" stroke="RGB(143,143,143)" stroke-width="0.2"/>
<path d="M439.68 378.89L439.68 368.89 327.26 368.89 439.68 378.89Z"
fill="RGB(143,143,143)" stroke="RGB(143,143,143)" stroke-width="0.2"/>
<path d="M327.26 368.89L439.68 368.89 327.26 364.14 327.26 368.89Z"
fill="RGB(143,143,143)" stroke="RGB(143,143,143)" stroke-width="0.2"/>
<path d="M439.68 368.89L439.68 364.14 327.26 364.14 439.68 368.89Z"
fill="RGB(143,143,143)" stroke="RGB(143,143,143)" stroke-width="0.2"/>
<path d="M327.26 199.29L439.68 199.29 327.26 189.29 327.26 199.29Z"
fill="RGB(143,143,143)" stroke="RGB(143,143,143)" stroke-width="0.2"/>
<path d="M439.68 199.29L439.68 189.29 327.26 189.29 439.68 199.29Z"
fill="RGB(143,143,143)" stroke="RGB(143,143,143)" stroke-width="0.2"/>
<path d="M439.68 378.89L450.45 378.89 439.68 368.89 439.68 378.89Z"
fill="RGB(143,143,143)" stroke="RGB(143,143,143)" stroke-width="0.2"/>
<path d="M450.45 378.89L450.45 368.89 439.68 368.89 450.45 378.89Z"
fill="RGB(143,143,143)" stroke="RGB(143,143,143)" stroke-width="0.2"/>
<path d="M439.68 364.14L450.45 368.89 439.68 199.29 439.68 364.14Z"
fill="RGB(143,143,143)" stroke="RGB(143,143,143)" stroke-width="0.2"/>
<path d="M450.45 368.89L450.45 199.29 439.68 199.29 450.45 368.89Z"
fill="RGB(143,143,143)" stroke="RGB(143,143,143)" stroke-width="0.2"/>
<path d="M439.68 199.29L450.45 199.29 439.68 189.29 439.68 199.29Z"
fill="RGB(143,143,143)" stroke="RGB(143,143,143)" stroke-width="0.2"/>
<path d="M450.45 199.29L450.45 189.29 439.68 189.29 450.45 199.29Z"
fill="RGB(143,143,143)" stroke="RGB(143,143,143)" stroke-width="0.2"/>
<path d="M455.25 368.89L455.25 364.08 450.45 368.89 455.25 368.89Z"
fill="RGB(143,143,143)" stroke="RGB(143,143,143)" stroke-width="0.2"/>
<path d="M450.45 368.89L455.25 364.08 450.45 199.29 450.45 368.89Z"
fill="RGB(143,143,143)" stroke="RGB(143,143,143)" stroke-width="0.2"/>
<path d="M455.25 364.08L455.25 204.1 450.45 199.29 455.25 364.08Z"
fill="RGB(143,143,143)" stroke="RGB(143,143,143)" stroke-width="0.2"/>
<path d="M455.25 204.1L455.25 199.29 450.45 199.29 455.25 204.1Z"
fill="RGB(143,143,143)" stroke="RGB(143,143,143)" stroke-width="0.2"/>
<path d="M455.25 368.89L558.06 368.89 455.25 364.08 455.25 368.89Z"
fill="RGB(143,143,143)" stroke="RGB(143,143,143)" stroke-width="0.2"/>
<path d="M558.06 368.89L558.06 364.08 455.25 364.08 558.06 368.89Z"
fill="RGB(143,143,143)" stroke="RGB(143,143,143)" stroke-width="0.2"/>
<path d="M455.25 204.1L558.06 204.1 455.25 199.29 455.25 204.1Z"
fill="RGB(143,143,143)" stroke="RGB(143,143,143)" stroke-width="0.2"/>
<path d="M558.06 204.1L558.06 199.29 455.25 199.29 558.06 204.1Z"
fill="RGB(143,143,143)" stroke="RGB(143,143,143)" stroke-width="0.2"/>
<path d="M450.45 378.89L562.87 378.89 450.45 368.89 450.45 378.89Z"
fill="RGB(143,143,143)" stroke="RGB(143,143,143)" stroke-width="0.2"/>
<path d="M562.87 378.89L562.87 368.89 450.45 368.89 562.87 378.89Z"
fill="RGB(143,143,143)" stroke="RGB(143,143,143)" stroke-width="0.2"/>
<path d="M558.06 368.89L562.87 368.89 558.06 364.08 558.06 368.89Z"
fill="RGB(143,143,143)" stroke="RGB(143,143,143)" stroke-width="0.2"/>
<path d="M558.06 364.08L562.87 368.89 558.06 204.1 558.06 364.08Z"
fill="RGB(143,143,143)" stroke="RGB(143,143,143)" stroke-width="0.2"/>
<path d="M562.87 368.89L562.87 199.29 558.06 204.1 562.87 368.89Z"
fill="RGB(143,143,143)" stroke="RGB(143,143,143)" stroke-width="0.2"/>
<path d="M558.06 204.1L562.87 199.29 558.06 199.29 558.06 204.1Z"
fill="RGB(143,143,143)" stroke="RGB(143,143,143)" stroke-width="0.2"/>
<path d="M450.45 199.29L562.87 199.29 450.45 189.29 450.45 199.29Z"
fill="RGB(143,143,143)" stroke="RGB(143,143,143)" stroke-width="0.2"/>
<path d="M562.87 199.29L562.87 189.29 450.45 189.29 562.87 199.29Z"
fill="RGB(143,143,143)" stroke="RGB(143,143,143)" stroke-width="0.2"/>
<path d="M562.87 378.89L572.87 378.89 562.87 368.89 562.87 378.89Z"
fill="RGB(143,143,143)" stroke="RGB(143,143,143)" stroke-width="0.2"/>
<path d="M562.87 368.89L572.87 378.89 562.87 199.29 562.87 368.89Z"
fill="RGB(143,143,143)" stroke="RGB(143,143,143)" stroke-width="0.2"/>
<path d="M572.87 378.89L572.87 189.29 562.87 199.29 572.87 378.89Z"
fill="RGB(143,143,143)" stroke="RGB(143,143,143)" stroke-width="0.2"/>
<path d="M562.87 199.29L572.87 189.29 562.87 189.29 562.87 199.29Z"
fill="RGB(143,143,143)" stroke="RGB(143,143,143)" stroke-width="0.2"/>
<path d="M327.26 368.89L327.26 364.14 317.26 189.29 327.26 368.89Z"
fill="RGB(143,143,143)" stroke="RGB(143,143,143)" stroke-width="0.2"/>
<path d="M439.68 368.89L450.45 368.89 439.68 364.14 439.68 368.89Z"
fill="RGB(143,143,143)" stroke="RGB(143,143,143)" stroke-width="0.2"/>
<path d="M316.87 188.91L573.25 188.91"
fill="none" stroke="RGB(165,124,0)" stroke-width="0.5"/>
<path d="M573.25 188.91L573.25 381.19Z"
fill="none" stroke="RGB(165,124,0)" stroke-width="0.5"/>
<path d="M573.25 381.19L316.87 381.19"
fill="none" stroke="RGB(165,124,0)" stroke-width="0.5"/>
<path d="M316.87 381.19L316.87 188.91Z"
fill="none" stroke="RGB(165,124,0)" stroke-width="0.5"/>
<path d="M317.26 189.29L327.26 199.29"
fill="none" stroke="black" stroke-width="0.5"/>
<path d="M327.26 199.29L562.87 199.29"
fill="none" stroke="black" stroke-width="0.5"/>
<path d="M562.87 199.29L572.87 189.29"
fill="none" stroke="black" stroke-width="0.5"/>
<path d="M572.87 189.29L317.26 189.29"
fill="none" stroke="black" stroke-width="0.5"/>
<path d="M317.26 378.89L327.26 368.89"
fill="none" stroke="black" stroke-width="0.5"/>
<path d="M327.26 368.89L562.87 368.89"
fill="none" stroke="black" stroke-width="0.5"/>
<path d="M562.87 368.89L572.87 378.89"
fill="none" stroke="black" stroke-width="0.5"/>
<path d="M572.87 378.89L317.26 378.89"
fill="none" stroke="black" stroke-width="0.5"/>
<path d="M327.26 199.29L317.26 189.29"
fill="none" stroke="black" stroke-width="0.5"/>
<path d="M317.26 189.29L317.26 378.89Z"
fill="none" stroke="black" stroke-width="0.5"/>
<path d="M317.26 378.89L327.26 368.89"
fill="none" stroke="black" stroke-width="0.5"/>
<path d="M327.26 368.89L327.26 199.29Z"
fill="none" stroke="black" stroke-width="0.5"/>
<path d="M562.87 199.29L572.87 189.29"
fill="none" stroke="black" stroke-width="0.5"/>
<path d="M572.87 189.29L572.87 378.89Z"
fill="none" stroke="black" stroke-width="0.5"/>
<path d="M572.87 378.89L562.87 368.89"
fill="none" stroke="black" stroke-width="0.5"/>
<path d="M562.87 368.89L562.87 199.29Z"
fill="none" stroke="black" stroke-width="0.5"/>
<path d="M439.68 199.29L450.45 199.29"
fill="none" stroke="black" stroke-width="0.5"/>
<path d="M450.45 199.29L450.45 368.89Z"
fill="none" stroke="black" stroke-width="0.5"/>
<path d="M450.45 368.89L439.68 368.89"
fill="none" stroke="black" stroke-width="0.5"/>
<path d="M439.68 368.89L439.68 199.29Z"
fill="none" stroke="black" stroke-width="0.5"/>
<path d="M450.45 368.89L455.25 364.08"
fill="none" stroke="black" stroke-width="0.5"/>
<path d="M455.25 364.08L558.06 364.08"
fill="none" stroke="black" stroke-width="0.5"/>
<path d="M558.06 364.08L562.87 368.89"
fill="none" stroke="black" stroke-width="0.5"/>
<path d="M562.87 368.89L450.45 368.89"
fill="none" stroke="black" stroke-width="0.5"/>
<path d="M450.45 199.29L455.25 204.1"
fill="none" stroke="black" stroke-width="0.5"/>
<path d="M455.25 204.1L558.06 204.1"
fill="none" stroke="black" stroke-width="0.5"/>
<path d="M558.06 204.1L562.87 199.29"
fill="none" stroke="black" stroke-width="0.5"/>
<path d="M562.87 199.29L450.45 199.29"
fill="none" stroke="black" stroke-width="0.5"/>
<path d="M450.45 368.89L455.25 364.08"
fill="none" stroke="black" stroke-width="0.5"/>
<path d="M455.25 364.08L455.25 204.1Z"
fill="none" stroke="black" stroke-width="0.5"/>
<path d="M455.25 204.1L450.45 199.29"
fill="none" stroke="black" stroke-width="0.5"/>
<path d="M450.45 199.29L450.45 368.89Z"
fill="none" stroke="black" stroke-width="0.5"/>
<path d="M562.87 368.89L558.06 364.08"
fill="none" stroke="black" stroke-width="0.5"/>
<path d="M558.06 364.08L558.06 204.1Z"
fill="none" stroke="black" stroke-width="0.5"/>
<path d="M558.06 204.1L562.87 199.29"
fill="none" stroke="black" stroke-width="0.5"/>
<path d="M562.87 199.29L562.87 368.89Z"
fill="none" stroke="black" stroke-width="0.5"/>
<path d="M327.26 364.14L439.68 364.14"
fill="none" stroke="black" stroke-width="0.5"/>
<path d="M439.68 364.14L439.68 368.89Z"
fill="none" stroke="black" stroke-width="0.5"/>
<path d="M439.68 368.89L327.26 368.89"
fill="none" stroke="black" stroke-width="0.5"/>
<path d="M327.26 368.89L327.26 364.14Z"
fill="none" stroke="black" stroke-width="0.5"/>
<path d="M450.45 368.89L506.66 199.29"
fill="none" stroke="RGB(183,183,183)" stroke-width="0.5"/>
<path d="M506.66 199.29L562.87 368.89"
fill="none" stroke="RGB(183,183,183)" stroke-width="0.5"/>
<path d="M562.87 368.89L450.45 284.09"
fill="none" stroke="RGB(183,183,183)" stroke-width="0.5"/>
<path d="M450.45 284.09L562.87 199.29"
fill="none" stroke="RGB(183,183,183)" stroke-width="0.5"/>
<path d="M383.47 275.31L383.47 288.13Z"
fill="none" stroke="RGB(183,183,183)" stroke-width="0.5"/>
<path d="M377.06 281.72L389.88 281.72"
fill="none" stroke="RGB(183,183,183)" stroke-width="0.5"/>
</svg>
