<?xml version="1.0" encoding="UTF-8"?>
<svg xmlns="http://www.w3.org/2000/svg" width="266.37" height="202.28" viewBox="343.13 183.08 266.37 202.28" version="1.1">
  <desc>Produce by Acme CAD Converter</desc>
<path d="M358.51 198.46L358.51 188.46 348.51 188.46 358.51 198.46Z"
fill="RGB(143,143,143)" stroke="RGB(143,143,143)" stroke-width="0.2"/>
<path d="M358.51 198.46L594.12 198.46 358.51 188.46 358.51 198.46Z"
fill="RGB(143,143,143)" stroke="RGB(143,143,143)" stroke-width="0.2"/>
<path d="M594.12 198.46L594.12 188.46 358.51 188.46 594.12 198.46Z"
fill="RGB(143,143,143)" stroke="RGB(143,143,143)" stroke-width="0.2"/>
<path d="M594.12 198.46L604.12 188.46 594.12 188.46 594.12 198.46Z"
fill="RGB(143,143,143)" stroke="RGB(143,143,143)" stroke-width="0.2"/>
<path d="M358.51 378.05L358.51 368.05 348.51 378.05 358.51 378.05Z"
fill="RGB(143,143,143)" stroke="RGB(143,143,143)" stroke-width="0.2"/>
<path d="M358.51 378.05L594.12 378.05 358.51 368.05 358.51 378.05Z"
fill="RGB(143,143,143)" stroke="RGB(143,143,143)" stroke-width="0.2"/>
<path d="M594.12 378.05L594.12 368.05 358.51 368.05 594.12 378.05Z"
fill="RGB(143,143,143)" stroke="RGB(143,143,143)" stroke-width="0.2"/>
<path d="M594.12 378.05L604.12 378.05 594.12 368.05 594.12 378.05Z"
fill="RGB(143,143,143)" stroke="RGB(143,143,143)" stroke-width="0.2"/>
<path d="M594.12 368.05L604.12 378.05 594.12 198.46 594.12 368.05Z"
fill="RGB(143,143,143)" stroke="RGB(143,143,143)" stroke-width="0.2"/>
<path d="M604.12 378.05L604.12 188.46 594.12 198.46 604.12 378.05Z"
fill="RGB(143,143,143)" stroke="RGB(143,143,143)" stroke-width="0.2"/>
<path d="M348.51 378.05L358.51 368.05 348.51 188.46 348.51 378.05Z"
fill="RGB(143,143,143)" stroke="RGB(143,143,143)" stroke-width="0.2"/>
<path d="M358.51 368.05L358.51 198.46 348.51 188.46 358.51 368.05Z"
fill="RGB(143,143,143)" stroke="RGB(143,143,143)" stroke-width="0.2"/>
<path d="M480.54 198.78L485.03 203.27 480.54 198.46 480.54 198.78Z"
fill="RGB(143,143,143)" stroke="RGB(143,143,143)" stroke-width="0.2"/>
<path d="M485.03 203.27L485.03 198.46 480.54 198.46 485.03 203.27Z"
fill="RGB(143,143,143)" stroke="RGB(143,143,143)" stroke-width="0.2"/>
<path d="M485.03 203.27L589.31 203.27 485.03 198.46 485.03 203.27Z"
fill="RGB(143,143,143)" stroke="RGB(143,143,143)" stroke-width="0.2"/>
<path d="M589.31 203.27L589.31 198.46 485.03 198.46 589.31 203.27Z"
fill="RGB(143,143,143)" stroke="RGB(143,143,143)" stroke-width="0.2"/>
<path d="M589.31 203.27L594.12 198.46 589.31 198.46 589.31 203.27Z"
fill="RGB(143,143,143)" stroke="RGB(143,143,143)" stroke-width="0.2"/>
<path d="M589.31 363.25L594.12 368.05 589.31 203.27 589.31 363.25Z"
fill="RGB(143,143,143)" stroke="RGB(143,143,143)" stroke-width="0.2"/>
<path d="M594.12 368.05L594.12 198.46 589.31 203.27 594.12 368.05Z"
fill="RGB(143,143,143)" stroke="RGB(143,143,143)" stroke-width="0.2"/>
<path d="M480.54 368.05L485.03 368.05 480.54 367.73 480.54 368.05Z"
fill="RGB(143,143,143)" stroke="RGB(143,143,143)" stroke-width="0.2"/>
<path d="M485.03 368.05L485.03 363.25 480.54 367.73 485.03 368.05Z"
fill="RGB(143,143,143)" stroke="RGB(143,143,143)" stroke-width="0.2"/>
<path d="M485.03 368.05L589.31 368.05 485.03 363.25 485.03 368.05Z"
fill="RGB(143,143,143)" stroke="RGB(143,143,143)" stroke-width="0.2"/>
<path d="M589.31 368.05L589.31 363.25 485.03 363.25 589.31 368.05Z"
fill="RGB(143,143,143)" stroke="RGB(143,143,143)" stroke-width="0.2"/>
<path d="M589.31 368.05L594.12 368.05 589.31 363.25 589.31 368.05Z"
fill="RGB(143,143,143)" stroke="RGB(143,143,143)" stroke-width="0.2"/>
<path d="M472.34 368.05L480.54 368.05 472.34 198.46 472.34 368.05Z"
fill="RGB(143,143,143)" stroke="RGB(143,143,143)" stroke-width="0.2"/>
<path d="M480.54 368.05L480.54 198.46 472.34 198.46 480.54 368.05Z"
fill="RGB(143,143,143)" stroke="RGB(143,143,143)" stroke-width="0.2"/>
<path d="M480.54 367.73L485.03 363.25 480.54 198.78 480.54 367.73Z"
fill="RGB(143,143,143)" stroke="RGB(143,143,143)" stroke-width="0.2"/>
<path d="M485.03 363.25L485.03 203.27 480.54 198.78 485.03 363.25Z"
fill="RGB(143,143,143)" stroke="RGB(143,143,143)" stroke-width="0.2"/>
<path d="M363.32 203.27L363.32 198.46 358.51 198.46 363.32 203.27Z"
fill="RGB(143,143,143)" stroke="RGB(143,143,143)" stroke-width="0.2"/>
<path d="M363.32 203.27L467.6 203.27 363.32 198.46 363.32 203.27Z"
fill="RGB(143,143,143)" stroke="RGB(143,143,143)" stroke-width="0.2"/>
<path d="M467.6 203.27L467.6 198.46 363.32 198.46 467.6 203.27Z"
fill="RGB(143,143,143)" stroke="RGB(143,143,143)" stroke-width="0.2"/>
<path d="M467.6 203.27L472.34 198.52 467.6 198.46 467.6 203.27Z"
fill="RGB(143,143,143)" stroke="RGB(143,143,143)" stroke-width="0.2"/>
<path d="M472.34 198.52L472.34 198.46 467.6 198.46 472.34 198.52Z"
fill="RGB(143,143,143)" stroke="RGB(143,143,143)" stroke-width="0.2"/>
<path d="M358.51 368.05L363.32 363.25 358.51 198.46 358.51 368.05Z"
fill="RGB(143,143,143)" stroke="RGB(143,143,143)" stroke-width="0.2"/>
<path d="M363.32 363.25L363.32 203.27 358.51 198.46 363.32 363.25Z"
fill="RGB(143,143,143)" stroke="RGB(143,143,143)" stroke-width="0.2"/>
<path d="M467.6 363.25L472.34 367.99 467.6 203.27 467.6 363.25Z"
fill="RGB(143,143,143)" stroke="RGB(143,143,143)" stroke-width="0.2"/>
<path d="M472.34 367.99L472.34 198.52 467.6 203.27 472.34 367.99Z"
fill="RGB(143,143,143)" stroke="RGB(143,143,143)" stroke-width="0.2"/>
<path d="M363.32 368.05L363.32 363.25 358.51 368.05 363.32 368.05Z"
fill="RGB(143,143,143)" stroke="RGB(143,143,143)" stroke-width="0.2"/>
<path d="M363.32 368.05L467.6 368.05 363.32 363.25 363.32 368.05Z"
fill="RGB(143,143,143)" stroke="RGB(143,143,143)" stroke-width="0.2"/>
<path d="M467.6 368.05L467.6 363.25 363.32 363.25 467.6 368.05Z"
fill="RGB(143,143,143)" stroke="RGB(143,143,143)" stroke-width="0.2"/>
<path d="M467.6 368.05L472.34 368.05 467.6 363.25 467.6 368.05Z"
fill="RGB(143,143,143)" stroke="RGB(143,143,143)" stroke-width="0.2"/>
<path d="M472.34 368.05L472.34 367.99 467.6 363.25 472.34 368.05Z"
fill="RGB(143,143,143)" stroke="RGB(143,143,143)" stroke-width="0.2"/>
<path d="M604.5 188.08L348.13 188.08"
fill="none" stroke="RGB(165,124,0)" stroke-width="0.5"/>
<path d="M348.13 188.08L348.13 380.36Z"
fill="none" stroke="RGB(165,124,0)" stroke-width="0.5"/>
<path d="M348.13 380.36L604.5 380.36"
fill="none" stroke="RGB(165,124,0)" stroke-width="0.5"/>
<path d="M604.5 380.36L604.5 188.08Z"
fill="none" stroke="RGB(165,124,0)" stroke-width="0.5"/>
<path d="M604.12 188.46L594.12 198.46"
fill="none" stroke="black" stroke-width="0.5"/>
<path d="M594.12 198.46L358.51 198.46"
fill="none" stroke="black" stroke-width="0.5"/>
<path d="M358.51 198.46L348.51 188.46"
fill="none" stroke="black" stroke-width="0.5"/>
<path d="M348.51 188.46L604.12 188.46"
fill="none" stroke="black" stroke-width="0.5"/>
<path d="M604.12 378.05L594.12 368.05"
fill="none" stroke="black" stroke-width="0.5"/>
<path d="M594.12 368.05L358.51 368.05"
fill="none" stroke="black" stroke-width="0.5"/>
<path d="M358.51 368.05L348.51 378.05"
fill="none" stroke="black" stroke-width="0.5"/>
<path d="M348.51 378.05L604.12 378.05"
fill="none" stroke="black" stroke-width="0.5"/>
<path d="M594.12 198.46L604.12 188.46"
fill="none" stroke="black" stroke-width="0.5"/>
<path d="M604.12 188.46L604.12 378.05Z"
fill="none" stroke="black" stroke-width="0.5"/>
<path d="M604.12 378.05L594.12 368.05"
fill="none" stroke="black" stroke-width="0.5"/>
<path d="M594.12 368.05L594.12 198.46Z"
fill="none" stroke="black" stroke-width="0.5"/>
<path d="M358.51 198.46L348.51 188.46"
fill="none" stroke="black" stroke-width="0.5"/>
<path d="M348.51 188.46L348.51 378.05Z"
fill="none" stroke="black" stroke-width="0.5"/>
<path d="M348.51 378.05L358.51 368.05"
fill="none" stroke="black" stroke-width="0.5"/>
<path d="M358.51 368.05L358.51 198.46Z"
fill="none" stroke="black" stroke-width="0.5"/>
<path d="M480.54 198.46L594.12 198.46"
fill="none" stroke="black" stroke-width="0.5"/>
<path d="M594.12 198.46L589.31 203.27"
fill="none" stroke="black" stroke-width="0.5"/>
<path d="M589.31 203.27L485.03 203.27"
fill="none" stroke="black" stroke-width="0.5"/>
<path d="M485.03 203.27L480.54 198.78"
fill="none" stroke="black" stroke-width="0.5"/>
<path d="M480.54 198.78L480.54 198.46Z"
fill="none" stroke="black" stroke-width="0.5"/>
<path d="M594.12 368.05L589.31 363.25"
fill="none" stroke="black" stroke-width="0.5"/>
<path d="M589.31 363.25L589.31 203.27Z"
fill="none" stroke="black" stroke-width="0.5"/>
<path d="M589.31 203.27L594.12 198.46"
fill="none" stroke="black" stroke-width="0.5"/>
<path d="M594.12 198.46L594.12 368.05Z"
fill="none" stroke="black" stroke-width="0.5"/>
<path d="M480.54 368.05L594.12 368.05"
fill="none" stroke="black" stroke-width="0.5"/>
<path d="M594.12 368.05L589.31 363.25"
fill="none" stroke="black" stroke-width="0.5"/>
<path d="M589.31 363.25L485.03 363.25"
fill="none" stroke="black" stroke-width="0.5"/>
<path d="M485.03 363.25L480.54 367.73"
fill="none" stroke="black" stroke-width="0.5"/>
<path d="M480.54 367.73L480.54 368.05Z"
fill="none" stroke="black" stroke-width="0.5"/>
<path d="M480.54 368.05L472.34 368.05"
fill="none" stroke="black" stroke-width="0.5"/>
<path d="M472.34 368.05L472.34 198.46Z"
fill="none" stroke="black" stroke-width="0.5"/>
<path d="M472.34 198.46L480.54 198.46"
fill="none" stroke="black" stroke-width="0.5"/>
<path d="M480.54 198.46L480.54 368.05Z"
fill="none" stroke="black" stroke-width="0.5"/>
<path d="M480.54 198.78L485.03 203.27"
fill="none" stroke="black" stroke-width="0.5"/>
<path d="M485.03 203.27L485.03 363.25Z"
fill="none" stroke="black" stroke-width="0.5"/>
<path d="M485.03 363.25L480.54 367.73"
fill="none" stroke="black" stroke-width="0.5"/>
<path d="M480.54 367.73L480.54 198.78Z"
fill="none" stroke="black" stroke-width="0.5"/>
<path d="M472.34 198.46L358.51 198.46"
fill="none" stroke="black" stroke-width="0.5"/>
<path d="M358.51 198.46L363.32 203.27"
fill="none" stroke="black" stroke-width="0.5"/>
<path d="M363.32 203.27L467.6 203.27"
fill="none" stroke="black" stroke-width="0.5"/>
<path d="M467.6 203.27L472.34 198.52"
fill="none" stroke="black" stroke-width="0.5"/>
<path d="M472.34 198.52L472.34 198.46Z"
fill="none" stroke="black" stroke-width="0.5"/>
<path d="M358.51 368.05L363.32 363.25"
fill="none" stroke="black" stroke-width="0.5"/>
<path d="M363.32 363.25L363.32 203.27Z"
fill="none" stroke="black" stroke-width="0.5"/>
<path d="M363.32 203.27L358.51 198.46"
fill="none" stroke="black" stroke-width="0.5"/>
<path d="M358.51 198.46L358.51 368.05Z"
fill="none" stroke="black" stroke-width="0.5"/>
<path d="M467.6 203.27L472.34 198.52"
fill="none" stroke="black" stroke-width="0.5"/>
<path d="M472.34 198.52L472.34 367.99Z"
fill="none" stroke="black" stroke-width="0.5"/>
<path d="M472.34 367.99L467.6 363.25"
fill="none" stroke="black" stroke-width="0.5"/>
<path d="M467.6 363.25L467.6 203.27Z"
fill="none" stroke="black" stroke-width="0.5"/>
<path d="M472.34 368.05L358.51 368.05"
fill="none" stroke="black" stroke-width="0.5"/>
<path d="M358.51 368.05L363.32 363.25"
fill="none" stroke="black" stroke-width="0.5"/>
<path d="M363.32 363.25L467.6 363.25"
fill="none" stroke="black" stroke-width="0.5"/>
<path d="M467.6 363.25L472.34 367.99"
fill="none" stroke="black" stroke-width="0.5"/>
<path d="M472.34 367.99L472.34 368.05Z"
fill="none" stroke="black" stroke-width="0.5"/>
<path d="M594.12 198.46L480.54 283.26"
fill="none" stroke="RGB(183,183,183)" stroke-width="0.5"/>
<path d="M480.54 283.26L594.12 368.05"
fill="none" stroke="RGB(183,183,183)" stroke-width="0.5"/>
<path d="M472.34 367.99L415.42 198.46"
fill="none" stroke="RGB(183,183,183)" stroke-width="0.5"/>
<path d="M415.42 198.46L358.51 368.05"
fill="none" stroke="RGB(183,183,183)" stroke-width="0.5"/>
<path d="M358.51 198.46L472.34 283.26"
fill="none" stroke="RGB(183,183,183)" stroke-width="0.5"/>
<path d="M472.34 283.26L358.51 368.05"
fill="none" stroke="RGB(183,183,183)" stroke-width="0.5"/>
</svg>
