<?xml version="1.0" encoding="UTF-8"?>
<svg xmlns="http://www.w3.org/2000/svg" width="266.37" height="202.28" viewBox="329.38 152.68 266.37 202.28" version="1.1">
  <desc>Produce by Acme CAD Converter</desc>
<path d="M470 337.66L474.81 332.85 470 168.07 470 337.66Z"
fill="RGB(143,143,143)" stroke="RGB(143,143,143)" stroke-width="0.2"/>
<path d="M474.81 332.85L474.81 172.87 470 168.07 474.81 332.85Z"
fill="RGB(143,143,143)" stroke="RGB(143,143,143)" stroke-width="0.2"/>
<path d="M344.76 168.07L344.76 158.07 334.76 158.07 344.76 168.07Z"
fill="RGB(143,143,143)" stroke="RGB(143,143,143)" stroke-width="0.2"/>
<path d="M344.76 168.07L580.37 168.07 344.76 158.07 344.76 168.07Z"
fill="RGB(143,143,143)" stroke="RGB(143,143,143)" stroke-width="0.2"/>
<path d="M580.37 168.07L580.37 158.07 344.76 158.07 580.37 168.07Z"
fill="RGB(143,143,143)" stroke="RGB(143,143,143)" stroke-width="0.2"/>
<path d="M580.37 168.07L590.37 158.07 580.37 158.07 580.37 168.07Z"
fill="RGB(143,143,143)" stroke="RGB(143,143,143)" stroke-width="0.2"/>
<path d="M344.76 347.66L344.76 337.66 334.76 347.66 344.76 347.66Z"
fill="RGB(143,143,143)" stroke="RGB(143,143,143)" stroke-width="0.2"/>
<path d="M344.76 347.66L580.37 347.66 344.76 337.66 344.76 347.66Z"
fill="RGB(143,143,143)" stroke="RGB(143,143,143)" stroke-width="0.2"/>
<path d="M580.37 347.66L580.37 337.66 344.76 337.66 580.37 347.66Z"
fill="RGB(143,143,143)" stroke="RGB(143,143,143)" stroke-width="0.2"/>
<path d="M580.37 347.66L590.37 347.66 580.37 337.66 580.37 347.66Z"
fill="RGB(143,143,143)" stroke="RGB(143,143,143)" stroke-width="0.2"/>
<path d="M334.76 347.66L344.76 337.66 334.76 158.07 334.76 347.66Z"
fill="RGB(143,143,143)" stroke="RGB(143,143,143)" stroke-width="0.2"/>
<path d="M344.76 337.66L344.76 168.07 334.76 158.07 344.76 337.66Z"
fill="RGB(143,143,143)" stroke="RGB(143,143,143)" stroke-width="0.2"/>
<path d="M580.37 337.66L590.37 347.66 580.37 168.07 580.37 337.66Z"
fill="RGB(143,143,143)" stroke="RGB(143,143,143)" stroke-width="0.2"/>
<path d="M590.37 347.66L590.37 158.07 580.37 168.07 590.37 347.66Z"
fill="RGB(143,143,143)" stroke="RGB(143,143,143)" stroke-width="0.2"/>
<path d="M474.81 337.66L474.81 332.85 470 337.66 474.81 337.66Z"
fill="RGB(143,143,143)" stroke="RGB(143,143,143)" stroke-width="0.2"/>
<path d="M474.81 337.66L575.56 337.66 474.81 332.85 474.81 337.66Z"
fill="RGB(143,143,143)" stroke="RGB(143,143,143)" stroke-width="0.2"/>
<path d="M575.56 337.66L575.56 332.85 474.81 332.85 575.56 337.66Z"
fill="RGB(143,143,143)" stroke="RGB(143,143,143)" stroke-width="0.2"/>
<path d="M575.56 337.66L580.37 337.66 575.56 332.85 575.56 337.66Z"
fill="RGB(143,143,143)" stroke="RGB(143,143,143)" stroke-width="0.2"/>
<path d="M474.81 172.87L474.81 168.07 470 168.07 474.81 172.87Z"
fill="RGB(143,143,143)" stroke="RGB(143,143,143)" stroke-width="0.2"/>
<path d="M474.81 172.87L575.56 172.87 474.81 168.07 474.81 172.87Z"
fill="RGB(143,143,143)" stroke="RGB(143,143,143)" stroke-width="0.2"/>
<path d="M575.56 172.87L575.56 168.07 474.81 168.07 575.56 172.87Z"
fill="RGB(143,143,143)" stroke="RGB(143,143,143)" stroke-width="0.2"/>
<path d="M575.56 172.87L580.37 168.07 575.56 168.07 575.56 172.87Z"
fill="RGB(143,143,143)" stroke="RGB(143,143,143)" stroke-width="0.2"/>
<path d="M575.56 332.85L580.37 337.66 575.56 172.87 575.56 332.85Z"
fill="RGB(143,143,143)" stroke="RGB(143,143,143)" stroke-width="0.2"/>
<path d="M580.37 337.66L580.37 168.07 575.56 172.87 580.37 337.66Z"
fill="RGB(143,143,143)" stroke="RGB(143,143,143)" stroke-width="0.2"/>
<path d="M349.57 337.66L349.57 332.85 344.76 337.66 349.57 337.66Z"
fill="RGB(143,143,143)" stroke="RGB(143,143,143)" stroke-width="0.2"/>
<path d="M349.57 337.66L450.32 337.66 349.57 332.85 349.57 337.66Z"
fill="RGB(143,143,143)" stroke="RGB(143,143,143)" stroke-width="0.2"/>
<path d="M450.32 337.66L450.32 332.85 349.57 332.85 450.32 337.66Z"
fill="RGB(143,143,143)" stroke="RGB(143,143,143)" stroke-width="0.2"/>
<path d="M450.32 337.66L455.13 337.66 450.32 332.85 450.32 337.66Z"
fill="RGB(143,143,143)" stroke="RGB(143,143,143)" stroke-width="0.2"/>
<path d="M349.57 172.87L349.57 168.07 344.76 168.07 349.57 172.87Z"
fill="RGB(143,143,143)" stroke="RGB(143,143,143)" stroke-width="0.2"/>
<path d="M349.57 172.87L450.32 172.87 349.57 168.07 349.57 172.87Z"
fill="RGB(143,143,143)" stroke="RGB(143,143,143)" stroke-width="0.2"/>
<path d="M450.32 172.87L450.32 168.07 349.57 168.07 450.32 172.87Z"
fill="RGB(143,143,143)" stroke="RGB(143,143,143)" stroke-width="0.2"/>
<path d="M450.32 172.87L455.13 168.07 450.32 168.07 450.32 172.87Z"
fill="RGB(143,143,143)" stroke="RGB(143,143,143)" stroke-width="0.2"/>
<path d="M344.76 337.66L349.57 332.85 344.76 168.07 344.76 337.66Z"
fill="RGB(143,143,143)" stroke="RGB(143,143,143)" stroke-width="0.2"/>
<path d="M349.57 332.85L349.57 172.87 344.76 168.07 349.57 332.85Z"
fill="RGB(143,143,143)" stroke="RGB(143,143,143)" stroke-width="0.2"/>
<path d="M450.32 332.85L455.13 337.66 450.32 172.87 450.32 332.85Z"
fill="RGB(143,143,143)" stroke="RGB(143,143,143)" stroke-width="0.2"/>
<path d="M455.13 337.66L455.13 168.07 450.32 172.87 455.13 337.66Z"
fill="RGB(143,143,143)" stroke="RGB(143,143,143)" stroke-width="0.2"/>
<path d="M455.13 337.66L461.15 337.66 455.13 168.07 455.13 337.66Z"
fill="RGB(143,143,143)" stroke="RGB(143,143,143)" stroke-width="0.2"/>
<path d="M461.15 337.66L461.15 168.07 455.13 168.07 461.15 337.66Z"
fill="RGB(143,143,143)" stroke="RGB(143,143,143)" stroke-width="0.2"/>
<path d="M463.97 337.66L470 337.66 463.97 168.07 463.97 337.66Z"
fill="RGB(143,143,143)" stroke="RGB(143,143,143)" stroke-width="0.2"/>
<path d="M470 337.66L470 168.07 463.97 168.07 470 337.66Z"
fill="RGB(143,143,143)" stroke="RGB(143,143,143)" stroke-width="0.2"/>
<path d="M461.15 337.66L463.97 337.66 461.15 168.07 461.15 337.66Z"
fill="RGB(143,143,143)" stroke="RGB(143,143,143)" stroke-width="0.2"/>
<path d="M463.97 337.66L463.97 168.07 461.15 168.07 463.97 337.66Z"
fill="RGB(143,143,143)" stroke="RGB(143,143,143)" stroke-width="0.2"/>
<path d="M580.37 337.66L470 252.86"
fill="none" stroke="RGB(183,183,183)" stroke-width="0.5"/>
<path d="M470 252.86L580.37 168.07"
fill="none" stroke="RGB(183,183,183)" stroke-width="0.5"/>
<path d="M334.38 157.68L590.75 157.68"
fill="none" stroke="RGB(165,124,0)" stroke-width="0.5"/>
<path d="M590.75 157.68L590.75 349.96Z"
fill="none" stroke="RGB(165,124,0)" stroke-width="0.5"/>
<path d="M590.75 349.96L334.38 349.96"
fill="none" stroke="RGB(165,124,0)" stroke-width="0.5"/>
<path d="M334.38 349.96L334.38 157.68Z"
fill="none" stroke="RGB(165,124,0)" stroke-width="0.5"/>
<path d="M334.76 158.07L344.76 168.07"
fill="none" stroke="black" stroke-width="0.5"/>
<path d="M344.76 168.07L580.37 168.07"
fill="none" stroke="black" stroke-width="0.5"/>
<path d="M580.37 168.07L590.37 158.07"
fill="none" stroke="black" stroke-width="0.5"/>
<path d="M590.37 158.07L334.76 158.07"
fill="none" stroke="black" stroke-width="0.5"/>
<path d="M334.76 347.66L344.76 337.66"
fill="none" stroke="black" stroke-width="0.5"/>
<path d="M344.76 337.66L580.37 337.66"
fill="none" stroke="black" stroke-width="0.5"/>
<path d="M580.37 337.66L590.37 347.66"
fill="none" stroke="black" stroke-width="0.5"/>
<path d="M590.37 347.66L334.76 347.66"
fill="none" stroke="black" stroke-width="0.5"/>
<path d="M344.76 168.07L334.76 158.07"
fill="none" stroke="black" stroke-width="0.5"/>
<path d="M334.76 158.07L334.76 347.66Z"
fill="none" stroke="black" stroke-width="0.5"/>
<path d="M334.76 347.66L344.76 337.66"
fill="none" stroke="black" stroke-width="0.5"/>
<path d="M344.76 337.66L344.76 168.07Z"
fill="none" stroke="black" stroke-width="0.5"/>
<path d="M580.37 168.07L590.37 158.07"
fill="none" stroke="black" stroke-width="0.5"/>
<path d="M590.37 158.07L590.37 347.66Z"
fill="none" stroke="black" stroke-width="0.5"/>
<path d="M590.37 347.66L580.37 337.66"
fill="none" stroke="black" stroke-width="0.5"/>
<path d="M580.37 337.66L580.37 168.07Z"
fill="none" stroke="black" stroke-width="0.5"/>
<path d="M470 337.66L474.81 332.85"
fill="none" stroke="black" stroke-width="0.5"/>
<path d="M474.81 332.85L575.56 332.85"
fill="none" stroke="black" stroke-width="0.5"/>
<path d="M575.56 332.85L580.37 337.66"
fill="none" stroke="black" stroke-width="0.5"/>
<path d="M580.37 337.66L470 337.66"
fill="none" stroke="black" stroke-width="0.5"/>
<path d="M470 168.07L474.81 172.87"
fill="none" stroke="black" stroke-width="0.5"/>
<path d="M474.81 172.87L575.56 172.87"
fill="none" stroke="black" stroke-width="0.5"/>
<path d="M575.56 172.87L580.37 168.07"
fill="none" stroke="black" stroke-width="0.5"/>
<path d="M580.37 168.07L470 168.07"
fill="none" stroke="black" stroke-width="0.5"/>
<path d="M470 337.66L524.86 168.07"
fill="none" stroke="RGB(183,183,183)" stroke-width="0.5"/>
<path d="M524.86 168.07L580.37 337.66"
fill="none" stroke="RGB(183,183,183)" stroke-width="0.5"/>
<path d="M580.37 337.66L575.56 332.85"
fill="none" stroke="black" stroke-width="0.5"/>
<path d="M575.56 332.85L575.56 172.87Z"
fill="none" stroke="black" stroke-width="0.5"/>
<path d="M575.56 172.87L580.37 168.07"
fill="none" stroke="black" stroke-width="0.5"/>
<path d="M580.37 168.07L580.37 337.66Z"
fill="none" stroke="black" stroke-width="0.5"/>
<path d="M455.13 337.66L450.32 332.85"
fill="none" stroke="black" stroke-width="0.5"/>
<path d="M450.32 332.85L349.57 332.85"
fill="none" stroke="black" stroke-width="0.5"/>
<path d="M349.57 332.85L344.76 337.66"
fill="none" stroke="black" stroke-width="0.5"/>
<path d="M344.76 337.66L455.13 337.66"
fill="none" stroke="black" stroke-width="0.5"/>
<path d="M455.13 168.07L450.32 172.87"
fill="none" stroke="black" stroke-width="0.5"/>
<path d="M450.32 172.87L349.57 172.87"
fill="none" stroke="black" stroke-width="0.5"/>
<path d="M349.57 172.87L344.76 168.07"
fill="none" stroke="black" stroke-width="0.5"/>
<path d="M344.76 168.07L455.13 168.07"
fill="none" stroke="black" stroke-width="0.5"/>
<path d="M344.76 337.66L349.57 332.85"
fill="none" stroke="black" stroke-width="0.5"/>
<path d="M349.57 332.85L349.57 172.87Z"
fill="none" stroke="black" stroke-width="0.5"/>
<path d="M349.57 172.87L344.76 168.07"
fill="none" stroke="black" stroke-width="0.5"/>
<path d="M344.76 168.07L344.76 337.66Z"
fill="none" stroke="black" stroke-width="0.5"/>
<path d="M455.13 337.66L400.26 168.07"
fill="none" stroke="RGB(183,183,183)" stroke-width="0.5"/>
<path d="M400.26 168.07L344.76 337.66"
fill="none" stroke="RGB(183,183,183)" stroke-width="0.5"/>
<path d="M455.13 337.66L344.76 252.86"
fill="none" stroke="RGB(183,183,183)" stroke-width="0.5"/>
<path d="M344.76 252.86L455.13 168.07"
fill="none" stroke="RGB(183,183,183)" stroke-width="0.5"/>
<path d="M455.13 168.07L470 168.07"
fill="none" stroke="black" stroke-width="0.5"/>
<path d="M470 168.07L470 337.66Z"
fill="none" stroke="black" stroke-width="0.5"/>
<path d="M470 337.66L455.13 337.66"
fill="none" stroke="black" stroke-width="0.5"/>
<path d="M455.13 337.66L455.13 168.07Z"
fill="none" stroke="black" stroke-width="0.5"/>
<path d="M470 337.66L474.81 332.85"
fill="none" stroke="black" stroke-width="0.5"/>
<path d="M474.81 332.85L474.81 172.87Z"
fill="none" stroke="black" stroke-width="0.5"/>
<path d="M474.81 172.87L470 168.07"
fill="none" stroke="black" stroke-width="0.5"/>
<path d="M470 168.07L470 337.66Z"
fill="none" stroke="black" stroke-width="0.5"/>
<path d="M455.13 337.66L450.32 332.85"
fill="none" stroke="black" stroke-width="0.5"/>
<path d="M450.32 332.85L450.32 172.87Z"
fill="none" stroke="black" stroke-width="0.5"/>
<path d="M450.32 172.87L455.13 168.07"
fill="none" stroke="black" stroke-width="0.5"/>
<path d="M455.13 168.07L455.13 337.66Z"
fill="none" stroke="black" stroke-width="0.5"/>
<path d="M455.13 168.07L461.15 168.07"
fill="none" stroke="black" stroke-width="0.5"/>
<path d="M461.15 168.07L461.15 337.66Z"
fill="none" stroke="black" stroke-width="0.5"/>
<path d="M461.15 337.66L455.13 337.66"
fill="none" stroke="black" stroke-width="0.5"/>
<path d="M455.13 337.66L455.13 168.07Z"
fill="none" stroke="black" stroke-width="0.5"/>
<path d="M470 168.07L463.97 168.07"
fill="none" stroke="black" stroke-width="0.5"/>
<path d="M463.97 168.07L463.97 337.66Z"
fill="none" stroke="black" stroke-width="0.5"/>
<path d="M463.97 337.66L470 337.66"
fill="none" stroke="black" stroke-width="0.5"/>
<path d="M470 337.66L470 168.07Z"
fill="none" stroke="black" stroke-width="0.5"/>
<path d="M461.15 168.07L463.97 168.07"
fill="none" stroke="black" stroke-width="0.5"/>
<path d="M463.97 168.07L463.97 337.66Z"
fill="none" stroke="black" stroke-width="0.5"/>
<path d="M463.97 337.66L461.15 337.66"
fill="none" stroke="black" stroke-width="0.5"/>
<path d="M461.15 337.66L461.15 168.07Z"
fill="none" stroke="black" stroke-width="0.5"/>
</svg>
