0
SECTION
2
HEADER
9
$ACADVER
1
AC1009
0
ENDSEC
0
SECTION
2
TABLES
0
TABLE
2
LAYER
70
4
0
LAYER
2
PILOT_PROOF_LINES
70
0
62
5
6
CONTINUOUS
0
LAYER
2
LOGICAL_DIV_REF_NON_PROFILE
70
0
62
2
6
CONTINUOUS
0
LAYER
2
EQUAL_FIELD_REF_NON_PROFILE
70
0
62
3
6
CONTINUOUS
0
LAYER
2
PHYS_OWN_BOUND_REF_NON_PROFILE
70
0
62
6
6
CONTINUOUS
0
ENDTAB
0
ENDSEC
0
SECTION
2
ENTITIES
0
LINE
8
PILOT_PROOF_LINES
10
1903.91753
20
1385.465693
30
0
11
2903.91753
21
1385.465693
31
0
0
LINE
8
PILOT_PROOF_LINES
10
2906.91753
20
1437.965693
30
0
11
1941.41753
21
1437.965693
31
0
0
LINE
8
PILOT_PROOF_LINES
10
1903.91753
20
1443.465693
30
0
11
1941.41753
21
1443.465693
31
0
0
LINE
8
PILOT_PROOF_LINES
10
2849.91753
20
1494.965693
30
0
11
1998.41753
21
1494.965693
31
0
0
LINE
8
PILOT_PROOF_LINES
10
2828.91753
20
1515.965693
30
0
11
2019.41753
21
1515.965693
31
0
0
LINE
8
PILOT_PROOF_LINES
10
1998.41753
20
1494.965693
30
0
11
2019.41753
21
1515.965693
31
0
0
LINE
8
PILOT_PROOF_LINES
10
2849.91753
20
1494.965693
30
0
11
2828.91753
21
1515.965693
31
0
0
LINE
8
PILOT_PROOF_LINES
10
1903.91753
20
1443.465693
30
0
11
1903.91753
21
1385.465693
31
0
0
LINE
8
PILOT_PROOF_LINES
10
1941.41753
20
1443.465693
30
0
11
1941.41753
21
1437.965693
31
0
0
LINE
8
PILOT_PROOF_LINES
10
1998.41753
20
1494.965693
30
0
11
1998.41753
21
1437.965693
31
0
0
LINE
8
PILOT_PROOF_LINES
10
2849.91753
20
1494.965693
30
0
11
2849.91753
21
1437.965693
31
0
0
LINE
8
PILOT_PROOF_LINES
10
3903.91753
20
1385.465693
30
0
11
4903.91753
21
1385.465693
31
0
0
LINE
8
PILOT_PROOF_LINES
10
4866.41753
20
1437.965693
30
0
11
3924.41739
21
1437.965693
31
0
0
LINE
8
PILOT_PROOF_LINES
10
4809.41753
20
1494.965693
30
0
11
3981.41739
21
1494.965693
31
0
0
LINE
8
PILOT_PROOF_LINES
10
4788.41753
20
1515.965693
30
0
11
4002.41739
21
1515.965693
31
0
0
LINE
8
PILOT_PROOF_LINES
10
4809.41753
20
1494.965693
30
0
11
4788.41753
21
1515.965693
31
0
0
LINE
8
PILOT_PROOF_LINES
10
4903.91753
20
1442.465693
30
0
11
4903.91753
21
1385.465693
31
0
0
LINE
8
PILOT_PROOF_LINES
10
4903.91753
20
1442.465693
30
0
11
4866.41753
21
1442.465693
31
0
0
LINE
8
PILOT_PROOF_LINES
10
4866.41753
20
1442.465693
30
0
11
4866.41753
21
1437.965693
31
0
0
LINE
8
PILOT_PROOF_LINES
10
4809.41753
20
1494.965693
30
0
11
4809.41753
21
1437.965693
31
0
0
LINE
8
PILOT_PROOF_LINES
10
4002.41739
20
1515.965693
30
0
11
3981.41739
21
1494.965693
31
0
0
LINE
8
PILOT_PROOF_LINES
10
3981.41739
20
1494.965693
30
0
11
3981.41739
21
1437.965693
31
0
0
LINE
8
PILOT_PROOF_LINES
10
2903.91753
20
1385.465693
30
0
11
3903.91753
21
1385.465693
31
0
0
LINE
8
PILOT_PROOF_LINES
10
2906.91753
20
1443.465693
30
0
11
3924.41739
21
1443.465693
31
0
0
LINE
8
PILOT_PROOF_LINES
10
2906.91753
20
1494.465693
30
0
11
3924.41739
21
1494.465693
31
0
0
LINE
8
PILOT_PROOF_LINES
10
3885.91739
20
1494.465693
30
0
11
3864.91739
21
1515.465693
31
0
0
LINE
8
PILOT_PROOF_LINES
10
2945.41753
20
1494.465693
30
0
11
2966.41753
21
1515.465693
31
0
0
LINE
8
PILOT_PROOF_LINES
10
2966.41753
20
1515.465693
30
0
11
3864.91739
21
1515.465693
31
0
0
LINE
8
PILOT_PROOF_LINES
10
2906.91753
20
1494.465693
30
0
11
2906.91753
21
1443.465693
31
0
0
LINE
8
PILOT_PROOF_LINES
10
3924.41739
20
1494.465693
30
0
11
3924.41739
21
1443.465693
31
0
0
LINE
8
PILOT_PROOF_LINES
10
1903.91753
20
2328.465693
30
0
11
1903.91753
21
1443.465693
31
0
0
LINE
8
PILOT_PROOF_LINES
10
1941.41753
20
1437.965693
30
0
11
1941.41753
21
2347.965693
31
0
0
LINE
8
PILOT_PROOF_LINES
10
1998.41753
20
1437.965693
30
0
11
1998.41753
21
2347.965693
31
0
0
LINE
8
PILOT_PROOF_LINES
10
2019.41753
20
1515.965693
30
0
11
2019.41753
21
2269.965693
31
0
0
LINE
8
PILOT_PROOF_LINES
10
1998.41753
20
1437.965693
30
0
11
1941.41753
21
1437.965693
31
0
0
LINE
8
PILOT_PROOF_LINES
10
1903.91753
20
1443.465693
30
0
11
1941.41753
21
1443.465693
31
0
0
LINE
8
PILOT_PROOF_LINES
10
1998.41753
20
1494.965693
30
0
11
2019.41753
21
1515.965693
31
0
0
LINE
8
PILOT_PROOF_LINES
10
1903.91753
20
2328.465693
30
0
11
1941.41753
21
2328.465693
31
0
0
LINE
8
PILOT_PROOF_LINES
10
1941.41753
20
2347.965693
30
0
11
1998.41753
21
2347.965693
31
0
0
LINE
8
PILOT_PROOF_LINES
10
1998.41753
20
2290.965693
30
0
11
2019.41753
21
2269.965693
31
0
0
LINE
8
PILOT_PROOF_LINES
10
4903.91753
20
1442.465693
30
0
11
4903.91753
21
2328.465693
31
0
0
LINE
8
PILOT_PROOF_LINES
10
4866.41753
20
1437.965693
30
0
11
4866.41753
21
2347.965693
31
0
0
LINE
8
PILOT_PROOF_LINES
10
4809.41753
20
1437.965693
30
0
11
4809.41753
21
2347.965693
31
0
0
LINE
8
PILOT_PROOF_LINES
10
4788.41753
20
1515.965693
30
0
11
4788.41753
21
2269.965693
31
0
0
LINE
8
PILOT_PROOF_LINES
10
4903.91753
20
1442.465693
30
0
11
4866.41753
21
1442.465693
31
0
0
LINE
8
PILOT_PROOF_LINES
10
4809.41753
20
2290.965693
30
0
11
4788.41753
21
2269.965693
31
0
0
LINE
8
PILOT_PROOF_LINES
10
4809.41753
20
2347.965693
30
0
11
4866.41753
21
2347.965693
31
0
0
LINE
8
PILOT_PROOF_LINES
10
4903.91753
20
2328.465693
30
0
11
4866.41753
21
2328.465693
31
0
0
LINE
8
PILOT_PROOF_LINES
10
4866.41753
20
1437.965693
30
0
11
4809.41753
21
1437.965693
31
0
0
LINE
8
PILOT_PROOF_LINES
10
4809.41753
20
1494.965693
30
0
11
4788.41753
21
1515.965693
31
0
0
LINE
8
PILOT_PROOF_LINES
10
2906.91753
20
1437.965693
30
0
11
2906.91753
21
2347.965693
31
0
0
LINE
8
PILOT_PROOF_LINES
10
2849.91753
20
1437.965693
30
0
11
2849.91753
21
2347.965693
31
0
0
LINE
8
PILOT_PROOF_LINES
10
2828.91753
20
1515.965693
30
0
11
2828.91753
21
2269.965693
31
0
0
LINE
8
PILOT_PROOF_LINES
10
2945.41753
20
1494.465693
30
0
11
2945.41753
21
2328.465693
31
0
0
LINE
8
PILOT_PROOF_LINES
10
2966.41753
20
2307.465693
30
0
11
2966.41753
21
1515.465693
31
0
0
LINE
8
PILOT_PROOF_LINES
10
2849.91753
20
1437.965693
30
0
11
2906.91753
21
1437.965693
31
0
0
LINE
8
PILOT_PROOF_LINES
10
2849.91753
20
2347.965693
30
0
11
2906.91753
21
2347.965693
31
0
0
LINE
8
PILOT_PROOF_LINES
10
2966.41753
20
2307.465693
30
0
11
2945.41753
21
2328.465693
31
0
0
LINE
8
PILOT_PROOF_LINES
10
2945.41753
20
2328.465693
30
0
11
2906.91753
21
2328.465693
31
0
0
LINE
8
PILOT_PROOF_LINES
10
2849.91753
20
2290.965693
30
0
11
2828.91753
21
2269.965693
31
0
0
LINE
8
PILOT_PROOF_LINES
10
2849.91753
20
1494.965693
30
0
11
2828.91753
21
1515.965693
31
0
0
LINE
8
PILOT_PROOF_LINES
10
2945.41753
20
1494.465693
30
0
11
2906.91753
21
1494.465693
31
0
0
LINE
8
PILOT_PROOF_LINES
10
2945.41753
20
1494.465693
30
0
11
2966.41753
21
1515.465693
31
0
0
LINE
8
PILOT_PROOF_LINES
10
3924.41739
20
1437.965693
30
0
11
3924.41739
21
2347.965693
31
0
0
LINE
8
PILOT_PROOF_LINES
10
3981.41739
20
1437.965693
30
0
11
3981.41739
21
2347.965693
31
0
0
LINE
8
PILOT_PROOF_LINES
10
4002.41739
20
1515.965693
30
0
11
4002.41739
21
2269.965693
31
0
0
LINE
8
PILOT_PROOF_LINES
10
3885.91739
20
1494.465693
30
0
11
3885.91739
21
2328.465693
31
0
0
LINE
8
PILOT_PROOF_LINES
10
3864.91739
20
2307.465693
30
0
11
3864.91739
21
1515.465693
31
0
0
LINE
8
PILOT_PROOF_LINES
10
3981.41739
20
1437.965693
30
0
11
3924.41739
21
1437.965693
31
0
0
LINE
8
PILOT_PROOF_LINES
10
3981.41739
20
2347.965693
30
0
11
3924.41739
21
2347.965693
31
0
0
LINE
8
PILOT_PROOF_LINES
10
3864.91739
20
2307.465693
30
0
11
3885.91739
21
2328.465693
31
0
0
LINE
8
PILOT_PROOF_LINES
10
3885.91739
20
2328.465693
30
0
11
3924.41739
21
2328.465693
31
0
0
LINE
8
PILOT_PROOF_LINES
10
3981.41739
20
2290.965693
30
0
11
4002.41739
21
2269.965693
31
0
0
LINE
8
PILOT_PROOF_LINES
10
3981.41739
20
1494.965693
30
0
11
4002.41739
21
1515.965693
31
0
0
LINE
8
PILOT_PROOF_LINES
10
3885.91739
20
1494.465693
30
0
11
3924.41739
21
1494.465693
31
0
0
LINE
8
PILOT_PROOF_LINES
10
3885.91739
20
1494.465693
30
0
11
3864.91739
21
1515.465693
31
0
0
LINE
8
PILOT_PROOF_LINES
10
2903.91753
20
2385.465693
30
0
11
1903.91753
21
2385.465693
31
0
0
LINE
8
PILOT_PROOF_LINES
10
1941.848681
20
2328.465693
30
0
11
1903.91753
21
2328.465693
31
0
0
LINE
8
PILOT_PROOF_LINES
10
2906.91753
20
2347.965693
30
0
11
1941.41753
21
2347.965693
31
0
0
LINE
8
PILOT_PROOF_LINES
10
2849.91753
20
2290.965693
30
0
11
1998.41753
21
2290.965693
31
0
0
LINE
8
PILOT_PROOF_LINES
10
2828.91753
20
2269.965693
30
0
11
2019.41753
21
2269.965693
31
0
0
LINE
8
PILOT_PROOF_LINES
10
1998.41753
20
2290.965693
30
0
11
2019.41753
21
2269.965693
31
0
0
LINE
8
PILOT_PROOF_LINES
10
2849.91753
20
2290.965693
30
0
11
2828.91753
21
2269.965693
31
0
0
LINE
8
PILOT_PROOF_LINES
10
1903.91753
20
2385.465693
30
0
11
1903.91753
21
2328.465693
31
0
0
LINE
8
PILOT_PROOF_LINES
10
1941.41753
20
2347.965693
30
0
11
1941.41753
21
2328.465693
31
0
0
LINE
8
PILOT_PROOF_LINES
10
1998.41753
20
2290.965693
30
0
11
1998.41753
21
2347.965693
31
0
0
LINE
8
PILOT_PROOF_LINES
10
2849.91753
20
2290.965693
30
0
11
2849.91753
21
2347.965693
31
0
0
LINE
8
PILOT_PROOF_LINES
10
4866.41753
20
2328.465693
30
0
11
4903.91753
21
2328.465693
31
0
0
LINE
8
PILOT_PROOF_LINES
10
3903.91753
20
2385.465693
30
0
11
4903.91753
21
2385.465693
31
0
0
LINE
8
PILOT_PROOF_LINES
10
4866.41753
20
2347.965693
30
0
11
3924.41739
21
2347.965693
31
0
0
LINE
8
PILOT_PROOF_LINES
10
4809.41753
20
2290.965693
30
0
11
3981.41739
21
2290.965693
31
0
0
LINE
8
PILOT_PROOF_LINES
10
4788.41753
20
2269.965693
30
0
11
4002.41739
21
2269.965693
31
0
0
LINE
8
PILOT_PROOF_LINES
10
4809.41753
20
2290.965693
30
0
11
4788.41753
21
2269.965693
31
0
0
LINE
8
PILOT_PROOF_LINES
10
4903.91753
20
2328.465693
30
0
11
4903.91753
21
2385.465693
31
0
0
LINE
8
PILOT_PROOF_LINES
10
4866.41753
20
2328.465693
30
0
11
4866.41753
21
2347.965693
31
0
0
LINE
8
PILOT_PROOF_LINES
10
4809.41753
20
2290.965693
30
0
11
4809.41753
21
2347.965693
31
0
0
LINE
8
PILOT_PROOF_LINES
10
4002.41739
20
2269.965693
30
0
11
3981.41739
21
2290.965693
31
0
0
LINE
8
PILOT_PROOF_LINES
10
3981.41739
20
2290.965693
30
0
11
3981.41739
21
2347.965693
31
0
0
LINE
8
PILOT_PROOF_LINES
10
2903.91753
20
2385.465693
30
0
11
3903.91753
21
2385.465693
31
0
0
LINE
8
PILOT_PROOF_LINES
10
2906.91753
20
2342.465693
30
0
11
3924.41739
21
2342.465693
31
0
0
LINE
8
PILOT_PROOF_LINES
10
2906.91753
20
2328.465693
30
0
11
3924.41739
21
2328.465693
31
0
0
LINE
8
PILOT_PROOF_LINES
10
2966.41753
20
2307.465693
30
0
11
3864.91739
21
2307.465693
31
0
0
LINE
8
PILOT_PROOF_LINES
10
2945.41753
20
2328.465693
30
0
11
2966.41753
21
2307.465693
31
0
0
LINE
8
PILOT_PROOF_LINES
10
3885.91739
20
2328.465693
30
0
11
3864.91739
21
2307.465693
31
0
0
LINE
8
PILOT_PROOF_LINES
10
2906.91753
20
2342.465693
30
0
11
2906.91753
21
2328.465693
31
0
0
LINE
8
PILOT_PROOF_LINES
10
3924.41739
20
2342.465693
30
0
11
3924.41739
21
2328.465693
31
0
0
LINE
8
LOGICAL_DIV_REF_NON_PROFILE
10
2903.91753
20
1385.465693
30
0
11
2903.91753
21
2385.465693
31
0
0
LINE
8
LOGICAL_DIV_REF_NON_PROFILE
10
3903.91753
20
1385.465693
30
0
11
3903.91753
21
2385.465693
31
0
0
LINE
8
EQUAL_FIELD_REF_NON_PROFILE
10
1903.91753
20
2430.465693
30
0
11
2903.91753
21
2430.465693
31
0
0
LINE
8
EQUAL_FIELD_REF_NON_PROFILE
10
2903.91753
20
2430.465693
30
0
11
3903.91753
21
2430.465693
31
0
0
LINE
8
EQUAL_FIELD_REF_NON_PROFILE
10
3903.91753
20
2430.465693
30
0
11
4903.91753
21
2430.465693
31
0
0
LINE
8
PHYS_OWN_BOUND_REF_NON_PROFILE
10
3924.41739
20
1385.465693
30
0
11
3924.41739
21
1430.465693
31
0
0
LINE
8
PHYS_OWN_BOUND_REF_NON_PROFILE
10
3981.41739
20
1385.465693
30
0
11
3981.41739
21
1430.465693
31
0
0
LINE
8
PHYS_OWN_BOUND_REF_NON_PROFILE
10
4002.41739
20
1385.465693
30
0
11
4002.41739
21
1430.465693
31
0
0
ENDSEC
0
EOF
